<?xml version="1.0" standalone="no"?>
<svg viewBox="0 0 200 200" xmlns="http://www.w3.org/2000/svg">
  <path fill="#FF0066" d="M45,-67.1C60.1,-60.3,75.3,-50.8,83.7,-36.9C92.2,-23,93.8,-4.6,90.6,12.6C87.5,29.8,79.5,45.9,67.1,55.4C54.6,65,37.7,67.9,21.6,71.9C5.5,76,-9.9,81,-24.3,78.6C-38.6,76.2,-52,66.4,-59.6,53.8C-67.2,41.1,-69.1,25.7,-72.3,9.8C-75.6,-6.1,-80.1,-22.3,-72.9,-31.3C-65.7,-40.2,-46.8,-41.8,-32.7,-49.1C-18.6,-56.4,-9.3,-69.5,2.8,-73.9C14.9,-78.2,29.9,-74,45,-67.1Z" transform="translate(100 100)" />
</svg>
